<?xml version="1.0" encoding="UTF-8"?>
<!DOCTYPE svg PUBLIC "-//W3C//DTD SVG 1.1//EN" "http://www.w3.org/Graphics/SVG/1.1/DTD/svg11.dtd">
<svg xmlns="http://www.w3.org/2000/svg" version="1.1" width="776px" height="343px" style="shape-rendering:geometricPrecision; text-rendering:geometricPrecision; image-rendering:optimizeQuality; fill-rule:evenodd; clip-rule:evenodd" xmlns:xlink="http://www.w3.org/1999/xlink">
<g><path style="opacity:0.99" fill="#fe9e00" d="M 347.5,46.5 C 357.5,46.5 367.5,46.5 377.5,46.5C 377.5,121.167 377.5,195.833 377.5,270.5C 367.5,270.5 357.5,270.5 347.5,270.5C 347.5,195.833 347.5,121.167 347.5,46.5 Z"/></g>
<g><path style="opacity:0.969" fill="#ff9d00" d="M 559.5,46.5 C 569.833,46.5 580.167,46.5 590.5,46.5C 590.333,82.5015 590.5,118.502 591,154.5C 610.675,135.86 632.842,132.36 657.5,144C 679.875,158.239 691.209,178.739 691.5,205.5C 691.511,232.008 680.511,252.508 658.5,267C 645.525,273.22 631.859,275.22 617.5,273C 607.442,270.388 598.609,265.555 591,258.5C 590.501,262.486 590.334,266.486 590.5,270.5C 580.167,270.5 569.833,270.5 559.5,270.5C 559.5,195.833 559.5,121.167 559.5,46.5 Z M 618.5,165.5 C 638.857,164.029 652.023,173.029 658,192.5C 662.768,211.183 658.268,227.017 644.5,240C 630.848,248.621 617.182,248.621 603.5,240C 591.323,228.857 586.49,215.024 589,198.5C 591.733,180.943 601.567,169.943 618.5,165.5 Z"/></g>
<g><path style="opacity:0.956" fill="#ffa000" d="M 115.5,53.5 C 126.5,53.5 137.5,53.5 148.5,53.5C 148.149,56.2377 147.482,58.9044 146.5,61.5C 139.532,62.497 132.532,62.8303 125.5,62.5C 125.167,65.1667 124.833,67.8333 124.5,70.5C 130.842,70.3338 137.175,70.5005 143.5,71C 142.287,73.6865 141.62,76.5198 141.5,79.5C 134.833,79.5 128.167,79.5 121.5,79.5C 120.55,85.5804 119.217,91.5804 117.5,97.5C 113.205,98.6609 108.871,98.8275 104.5,98C 108.089,83.1442 111.756,68.3109 115.5,53.5 Z"/></g>
<g><path style="opacity:0.942" fill="#ffa000" d="M 168.5,53.5 C 177.506,53.3336 186.506,53.5002 195.5,54C 203.306,57.033 205.806,62.533 203,70.5C 200.448,74.7189 196.948,77.8855 192.5,80C 195.58,86.1611 198.913,92.1611 202.5,98C 197.467,98.8289 192.467,98.6623 187.5,97.5C 185,92.5 182.5,87.5 180,82.5C 178,81.1667 176,81.1667 174,82.5C 172.988,87.5466 171.822,92.5466 170.5,97.5C 166.205,98.6609 161.871,98.8275 157.5,98C 161.089,83.1442 164.756,68.3109 168.5,53.5 Z M 178.5,61.5 C 181.91,61.4571 185.243,61.9571 188.5,63C 191.034,65.5867 191.034,68.2533 188.5,71C 184.654,72.536 180.654,73.3693 176.5,73.5C 177.295,69.5236 177.962,65.5236 178.5,61.5 Z"/></g>
<g><path style="opacity:0.964" fill="#ffa000" d="M 229.5,53.5 C 240.5,53.5 251.5,53.5 262.5,53.5C 262.037,56.4824 261.704,59.4824 261.5,62.5C 254.167,62.5 246.833,62.5 239.5,62.5C 239.167,65.1667 238.833,67.8333 238.5,70.5C 244.833,70.5 251.167,70.5 257.5,70.5C 257.149,73.2377 256.482,75.9044 255.5,78.5C 248.866,79.4967 242.2,79.83 235.5,79.5C 235.308,82.6008 234.642,85.6008 233.5,88.5C 240.5,89.1667 247.5,89.8333 254.5,90.5C 253.833,92.8333 253.167,95.1667 252.5,97.5C 241.181,98.6658 229.848,98.8325 218.5,98C 222.089,83.1442 225.756,68.3109 229.5,53.5 Z"/></g>
<g><path style="opacity:0.964" fill="#ffa000" d="M 284.5,53.5 C 295.5,53.5 306.5,53.5 317.5,53.5C 317.037,56.4824 316.704,59.4824 316.5,62.5C 309.167,62.5 301.833,62.5 294.5,62.5C 294.167,65.1667 293.833,67.8333 293.5,70.5C 299.833,70.5 306.167,70.5 312.5,70.5C 312.149,73.2377 311.482,75.9044 310.5,78.5C 303.866,79.4967 297.2,79.83 290.5,79.5C 290.308,82.6008 289.642,85.6008 288.5,88.5C 295.5,89.1667 302.5,89.8333 309.5,90.5C 308.833,92.8333 308.167,95.1667 307.5,97.5C 296.181,98.6658 284.848,98.8325 273.5,98C 277.089,83.1442 280.756,68.3109 284.5,53.5 Z"/></g>
<g><path style="opacity:0.913" fill="#ff9f00" d="M 103.5,102.5 C 174.5,102.5 245.5,102.5 316.5,102.5C 316.5,104.833 316.5,107.167 316.5,109.5C 245.5,109.5 174.5,109.5 103.5,109.5C 103.5,107.167 103.5,104.833 103.5,102.5 Z"/></g>
<g><path style="opacity:0.972" fill="#ff9e00" d="M 497.5,260.5 C 483.27,272.247 466.937,276.413 448.5,273C 421.742,265.052 405.909,247.219 401,219.5C 396.916,194.667 403.082,173 419.5,154.5C 441.635,134.804 465.635,132.304 491.5,147C 494.63,149.128 497.463,151.628 500,154.5C 500.499,150.179 500.666,145.846 500.5,141.5C 510.833,141.5 521.167,141.5 531.5,141.5C 531.5,184.5 531.5,227.5 531.5,270.5C 521.167,270.5 510.833,270.5 500.5,270.5C 500.666,266.486 500.499,262.486 500,258.5C 499.005,259.066 498.172,259.733 497.5,260.5 Z M 460.5,165.5 C 481.341,163.661 494.841,172.661 501,192.5C 505.715,211.177 501.215,227.011 487.5,240C 466.41,251.857 449.243,247.69 436,227.5C 426.953,205.88 430.786,187.046 447.5,171C 451.686,168.566 456.02,166.733 460.5,165.5 Z"/></g>
<g><path style="opacity:1" fill="#ffd933" d="M 139.5,175.5 C 138.833,174.167 138.167,174.167 137.5,175.5C 136.833,175.833 136.167,176.167 135.5,176.5C 134.833,176.5 134.5,176.833 134.5,177.5C 134.167,177.5 133.833,177.5 133.5,177.5C 125.833,169.167 117.833,161.167 109.5,153.5C 110.306,152.272 111.306,151.272 112.5,150.5C 113.167,150.5 113.5,150.167 113.5,149.5C 113.833,149.5 114.167,149.5 114.5,149.5C 115.167,149.5 115.5,149.167 115.5,148.5C 116.167,148.5 116.5,148.167 116.5,147.5C 116.833,147.5 117.167,147.5 117.5,147.5C 138.847,135.544 160.847,134.378 183.5,144C 188.604,146.773 193.437,149.94 198,153.5C 197.588,156.295 196.588,158.962 195,161.5C 189.834,168.495 185.167,175.828 181,183.5C 170.234,172.726 157.401,169.226 142.5,173C 141.309,173.698 140.309,174.531 139.5,175.5 Z"/></g>
<g><path style="opacity:1" fill="#ffd834" d="M 300.5,151.5 C 300.5,152.167 300.833,152.5 301.5,152.5C 301.5,153.167 301.833,153.5 302.5,153.5C 302.833,153.5 303.167,153.5 303.5,153.5C 304.75,155.154 306.084,156.821 307.5,158.5C 299.5,166.167 291.5,173.833 283.5,181.5C 283.167,181.5 282.833,181.5 282.5,181.5C 282.5,180.833 282.167,180.5 281.5,180.5C 281.158,179.662 280.492,179.328 279.5,179.5C 279.5,178.833 279.167,178.5 278.5,178.5C 278.5,177.833 278.167,177.5 277.5,177.5C 263.337,169.141 249.337,169.641 235.5,179C 220.941,193.235 218.607,209.069 228.5,226.5C 228.5,226.833 228.5,227.167 228.5,227.5C 228.5,228.167 228.833,228.5 229.5,228.5C 230.752,230.001 231.752,231.668 232.5,233.5C 224.5,240.833 216.833,248.5 209.5,256.5C 208.5,255.833 207.5,255.167 206.5,254.5C 206.5,253.833 206.167,253.5 205.5,253.5C 205.5,252.833 205.167,252.5 204.5,252.5C 204.5,251.833 204.167,251.5 203.5,251.5C 182.669,222.71 182.336,193.71 202.5,164.5C 222.295,141.069 247.295,132.902 277.5,140C 285.741,142.787 293.407,146.62 300.5,151.5 Z"/></g>
<g><path style="opacity:0.006" fill="#dd1802" d="M 117.5,147.5 C 117.167,147.5 116.833,147.5 116.5,147.5C 115.833,147.5 115.5,147.833 115.5,148.5C 114.833,148.5 114.5,148.833 114.5,149.5C 114.167,149.5 113.833,149.5 113.5,149.5C 112.833,149.5 112.5,149.833 112.5,150.5C 111.306,151.272 110.306,152.272 109.5,153.5C 108.5,154.167 107.5,154.833 106.5,155.5C 105.833,155.5 105.5,155.833 105.5,156.5C 104.833,156.5 104.5,156.833 104.5,157.5C 103.833,157.5 103.5,157.833 103.5,158.5C 102.833,158.5 102.5,158.833 102.5,159.5C 101.606,157.692 100.606,155.858 99.5,154C 100.783,151.995 101.783,149.828 102.5,147.5C 107.581,144.936 112.581,144.936 117.5,147.5 Z"/></g>
<g><path style="opacity:0.005" fill="#000000" d="M 302.5,150.5 C 303.209,149.596 304.209,149.263 305.5,149.5C 305.631,150.239 305.464,150.906 305,151.5C 304.329,150.748 303.496,150.414 302.5,150.5 Z"/></g>
<g><path style="opacity:0.006" fill="#ef1202" d="M 305.5,149.5 C 306.167,149.5 306.833,149.5 307.5,149.5C 307.369,150.239 307.536,150.906 308,151.5C 308.671,150.748 309.504,150.414 310.5,150.5C 314.797,152.418 317.13,155.751 317.5,160.5C 315.952,160.821 315.285,161.821 315.5,163.5C 315.5,164.833 314.833,165.5 313.5,165.5C 313.5,165.167 313.5,164.833 313.5,164.5C 313.5,163.833 313.167,163.5 312.5,163.5C 312.5,163.167 312.5,162.833 312.5,162.5C 314.441,160.989 314.941,158.989 314,156.5C 313.667,156.833 313.333,157.167 313,157.5C 310.817,153.42 307.65,152.086 303.5,153.5C 303.167,153.5 302.833,153.5 302.5,153.5C 301.833,153.5 301.5,153.167 301.5,152.5C 300.833,152.5 300.5,152.167 300.5,151.5C 300.842,150.662 301.508,150.328 302.5,150.5C 303.496,150.414 304.329,150.748 305,151.5C 305.464,150.906 305.631,150.239 305.5,149.5 Z"/></g>
<g><path style="opacity:0.005" fill="#000000" d="M 307.5,149.5 C 308.791,149.263 309.791,149.596 310.5,150.5C 309.504,150.414 308.671,150.748 308,151.5C 307.536,150.906 307.369,150.239 307.5,149.5 Z"/></g>
<g><path style="opacity:0.004" fill="#feff00" d="M 419.5,154.5 C 418.833,153.167 418.833,153.167 419.5,154.5 Z"/></g>
<g><path style="opacity:0.999" fill="#fec006" d="M 109.5,153.5 C 117.833,161.167 125.833,169.167 133.5,177.5C 132.833,177.5 132.5,177.833 132.5,178.5C 131.833,178.5 131.5,178.833 131.5,179.5C 130.5,180.167 129.5,180.833 128.5,181.5C 127.833,181.5 127.5,181.833 127.5,182.5C 127.5,182.833 127.5,183.167 127.5,183.5C 117.873,193.913 115.373,205.913 120,219.5C 121.6,223.577 123.766,227.244 126.5,230.5C 126.5,231.167 126.833,231.5 127.5,231.5C 127.5,232.167 127.833,232.5 128.5,232.5C 128.5,233.167 128.833,233.5 129.5,233.5C 129.5,234.167 129.833,234.5 130.5,234.5C 131.872,235.512 133.205,236.512 134.5,237.5C 125.5,244.5 117.5,252.5 110.5,261.5C 110.167,261.5 109.833,261.5 109.5,261.5C 109.5,260.833 109.167,260.5 108.5,260.5C 107.473,258.806 106.139,257.473 104.5,256.5C 104.5,255.833 104.167,255.5 103.5,255.5C 102.833,255.5 102.5,255.167 102.5,254.5C 77.1887,222.871 77.1887,191.204 102.5,159.5C 103.167,159.5 103.5,159.167 103.5,158.5C 104.167,158.5 104.5,158.167 104.5,157.5C 105.167,157.5 105.5,157.167 105.5,156.5C 106.167,156.5 106.5,156.167 106.5,155.5C 107.5,154.833 108.5,154.167 109.5,153.5 Z"/></g>
<g><path style="opacity:0.02" fill="#d43400" d="M 312.5,162.5 C 312.167,162.5 311.833,162.5 311.5,162.5C 309.833,161.5 308.5,160.167 307.5,158.5C 306.084,156.821 304.75,155.154 303.5,153.5C 307.65,152.086 310.817,153.42 313,157.5C 313.333,157.167 313.667,156.833 314,156.5C 314.941,158.989 314.441,160.989 312.5,162.5 Z"/></g>
<g><path style="opacity:0.004" fill="#3f1408" d="M 317.5,160.5 C 317.715,162.179 317.048,163.179 315.5,163.5C 315.285,161.821 315.952,160.821 317.5,160.5 Z"/></g>
<g><path style="opacity:0.004" fill="#feff00" d="M 202.5,164.5 C 201.833,163.167 201.833,163.167 202.5,164.5 Z"/></g>
<g><path style="opacity:0.98" fill="#feb705" d="M 307.5,158.5 C 308.5,160.167 309.833,161.5 311.5,162.5C 311.5,163.167 311.833,163.5 312.5,163.5C 313.167,163.5 313.5,163.833 313.5,164.5C 313.5,164.833 313.5,165.167 313.5,165.5C 326.166,182.541 330.166,201.541 325.5,222.5C 312.868,210.369 300.368,198.035 288,185.5C 287.601,185.728 287.435,186.062 287.5,186.5C 287.167,186.5 286.833,186.5 286.5,186.5C 286.573,184.973 285.906,183.973 284.5,183.5C 284.5,182.833 284.167,182.5 283.5,182.5C 283.5,182.167 283.5,181.833 283.5,181.5C 291.5,173.833 299.5,166.167 307.5,158.5 Z"/></g>
<g><path style="opacity:0.006" fill="#ee1f01" d="M 137.5,175.5 C 138.167,175.5 138.833,175.5 139.5,175.5C 139.33,176.822 139.663,177.989 140.5,179C 139.061,179.991 138.061,181.324 137.5,183C 135.39,183.554 133.39,184.388 131.5,185.5C 129.927,185.248 128.594,184.582 127.5,183.5C 127.5,183.167 127.5,182.833 127.5,182.5C 128.167,182.5 128.5,182.167 128.5,181.5C 129.5,180.833 130.5,180.167 131.5,179.5C 132.167,179.5 132.5,179.167 132.5,178.5C 132.5,177.833 132.833,177.5 133.5,177.5C 133.833,177.5 134.167,177.5 134.5,177.5C 135.167,177.5 135.5,177.167 135.5,176.5C 136.167,176.167 136.833,175.833 137.5,175.5 Z"/></g>
<g><path style="opacity:0.012" fill="#d32a03" d="M 277.5,177.5 C 278.167,177.5 278.5,177.833 278.5,178.5C 279.167,178.5 279.5,178.833 279.5,179.5C 280.492,179.328 281.158,179.662 281.5,180.5C 282.167,180.5 282.5,180.833 282.5,181.5C 282.833,181.5 283.167,181.5 283.5,181.5C 283.5,181.833 283.5,182.167 283.5,182.5C 284.167,182.5 284.5,182.833 284.5,183.5C 285.906,183.973 286.573,184.973 286.5,186.5C 286.5,187.167 286.833,187.5 287.5,187.5C 287.5,188.167 287.833,188.5 288.5,188.5C 288.5,188.833 288.5,189.167 288.5,189.5C 281.107,191.725 276.774,188.892 275.5,181C 275.608,179.319 276.275,178.152 277.5,177.5 Z"/></g>
<g><path style="opacity:1" fill="#ffc106" d="M 325.5,222.5 C 318.202,250.465 300.535,268.131 272.5,275.5C 261.089,262.586 249.089,250.086 236.5,238C 237.094,237.536 237.761,237.369 238.5,237.5C 238.833,237.5 239.167,237.5 239.5,237.5C 239.5,238.167 239.833,238.5 240.5,238.5C 240.833,238.5 241.167,238.5 241.5,238.5C 264.538,247.652 281.371,240.985 292,218.5C 294,210.833 294,203.167 292,195.5C 291.059,193.273 289.892,191.273 288.5,189.5C 288.5,189.167 288.5,188.833 288.5,188.5C 287.833,188.5 287.5,188.167 287.5,187.5C 287.5,187.167 287.5,186.833 287.5,186.5C 287.435,186.062 287.601,185.728 288,185.5C 300.368,198.035 312.868,210.369 325.5,222.5 Z"/></g>
<g><path style="opacity:0.006" fill="#ee2301" d="M 141.5,240.5 C 141.167,240.5 140.833,240.5 140.5,240.5C 140.5,239.833 140.167,239.5 139.5,239.5C 139.158,238.662 138.492,238.328 137.5,238.5C 137.167,238.5 136.833,238.5 136.5,238.5C 136.5,237.833 136.167,237.5 135.5,237.5C 135.167,237.5 134.833,237.5 134.5,237.5C 133.205,236.512 131.872,235.512 130.5,234.5C 129.833,234.5 129.5,234.167 129.5,233.5C 128.833,233.5 128.5,233.167 128.5,232.5C 127.833,232.5 127.5,232.167 127.5,231.5C 126.833,231.5 126.5,231.167 126.5,230.5C 136.087,227.12 141.087,230.453 141.5,240.5 Z"/></g>
<g><path style="opacity:0.006" fill="#211305" d="M 241.5,230.5 C 242.338,230.842 242.672,231.508 242.5,232.5C 240.465,233.644 239.632,232.977 240,230.5C 240.69,231.738 241.19,231.738 241.5,230.5 Z"/></g>
<g><path style="opacity:0.02" fill="#e02b00" d="M 241.5,230.5 C 241.19,231.738 240.69,231.738 240,230.5C 239.632,232.977 240.465,233.644 242.5,232.5C 242.5,233.5 242.5,234.5 242.5,235.5C 240.302,235.409 239.969,236.075 241.5,237.5C 241.5,237.833 241.5,238.167 241.5,238.5C 241.167,238.5 240.833,238.5 240.5,238.5C 239.833,238.5 239.5,238.167 239.5,237.5C 239.5,236.833 239.167,236.5 238.5,236.5C 238.167,236.5 237.833,236.5 237.5,236.5C 237.5,235.833 237.167,235.5 236.5,235.5C 235.167,234.833 233.833,234.167 232.5,233.5C 231.752,231.668 230.752,230.001 229.5,228.5C 228.833,228.5 228.5,228.167 228.5,227.5C 228.5,227.167 228.5,226.833 228.5,226.5C 230.041,223.817 232.374,222.984 235.5,224C 237.249,225.292 239.082,226.458 241,227.5C 241.483,228.448 241.649,229.448 241.5,230.5 Z"/></g>
<g><path style="opacity:1" fill="#ffd933" d="M 116.5,266.5 C 116.5,265.833 116.167,265.5 115.5,265.5C 115.167,265.5 114.833,265.5 114.5,265.5C 114.5,264.833 114.167,264.5 113.5,264.5C 113.5,263.833 113.167,263.5 112.5,263.5C 112.167,263.5 111.833,263.5 111.5,263.5C 111.5,262.833 111.167,262.5 110.5,262.5C 110.5,262.167 110.5,261.833 110.5,261.5C 117.5,252.5 125.5,244.5 134.5,237.5C 134.833,237.5 135.167,237.5 135.5,237.5C 136.167,237.5 136.5,237.833 136.5,238.5C 136.833,238.5 137.167,238.5 137.5,238.5C 137.842,239.338 138.508,239.672 139.5,239.5C 140.167,239.5 140.5,239.833 140.5,240.5C 140.833,240.5 141.167,240.5 141.5,240.5C 155.583,245.25 168.083,242.583 179,232.5C 185.694,240.867 192.028,249.534 198,258.5C 198.749,259.635 198.583,260.635 197.5,261.5C 171.549,280.691 144.549,282.358 116.5,266.5 Z"/></g>
<g><path style="opacity:0.005" fill="#000000" d="M 242.5,235.5 C 242.672,236.492 242.338,237.158 241.5,237.5C 239.969,236.075 240.302,235.409 242.5,235.5 Z"/></g>
<g><path style="opacity:0.976" fill="#feb705" d="M 232.5,233.5 C 233.833,234.167 235.167,234.833 236.5,235.5C 237.167,235.5 237.5,235.833 237.5,236.5C 237.833,236.5 238.167,236.5 238.5,236.5C 238.5,236.833 238.5,237.167 238.5,237.5C 237.761,237.369 237.094,237.536 236.5,238C 249.089,250.086 261.089,262.586 272.5,275.5C 267.51,276.165 262.51,276.832 257.5,277.5C 242.166,276.508 228.166,271.841 215.5,263.5C 215.5,262.833 215.167,262.5 214.5,262.5C 214.5,261.833 214.167,261.5 213.5,261.5C 213.5,260.833 213.167,260.5 212.5,260.5C 212.167,259.5 211.5,258.833 210.5,258.5C 210.5,257.833 210.167,257.5 209.5,257.5C 209.5,257.167 209.5,256.833 209.5,256.5C 216.833,248.5 224.5,240.833 232.5,233.5 Z"/></g>
<g><path style="opacity:0.006" fill="#e12303" d="M 102.5,254.5 C 102.5,255.167 102.833,255.5 103.5,255.5C 104.167,255.5 104.5,255.833 104.5,256.5C 106.139,257.473 107.473,258.806 108.5,260.5C 109.167,260.5 109.5,260.833 109.5,261.5C 109.833,261.5 110.167,261.5 110.5,261.5C 110.5,261.833 110.5,262.167 110.5,262.5C 111.167,262.5 111.5,262.833 111.5,263.5C 111.833,263.5 112.167,263.5 112.5,263.5C 113.167,263.5 113.5,263.833 113.5,264.5C 114.167,264.5 114.5,264.833 114.5,265.5C 114.833,265.5 115.167,265.5 115.5,265.5C 116.167,265.5 116.5,265.833 116.5,266.5C 112.398,268.928 108.065,269.095 103.5,267C 101.424,262.847 101.09,258.681 102.5,254.5 Z"/></g>
<g><path style="opacity:0.005" fill="#000000" d="M 201.5,255.5 C 202.167,255.5 202.833,255.5 203.5,255.5C 202.89,256.391 202.557,257.391 202.5,258.5C 201.596,257.791 201.263,256.791 201.5,255.5 Z"/></g>
<g><path style="opacity:0.006" fill="#dd2305" d="M 203.5,255.5 C 205.379,255.393 205.712,255.893 204.5,257C 206.378,258.543 207.878,260.376 209,262.5C 210.335,261.92 211.502,261.587 212.5,261.5C 212.833,261.5 213.167,261.5 213.5,261.5C 214.167,261.5 214.5,261.833 214.5,262.5C 215.167,262.5 215.5,262.833 215.5,263.5C 211.24,265.13 207.24,264.464 203.5,261.5C 202.873,260.583 202.539,259.583 202.5,258.5C 202.557,257.391 202.89,256.391 203.5,255.5 Z"/></g>
<g><path style="opacity:0.02" fill="#b32d03" d="M 203.5,251.5 C 204.167,251.5 204.5,251.833 204.5,252.5C 205.167,252.5 205.5,252.833 205.5,253.5C 206.167,253.5 206.5,253.833 206.5,254.5C 207.5,255.167 208.5,255.833 209.5,256.5C 209.5,256.833 209.5,257.167 209.5,257.5C 210.167,257.5 210.5,257.833 210.5,258.5C 211.5,258.833 212.167,259.5 212.5,260.5C 212.5,260.833 212.5,261.167 212.5,261.5C 211.502,261.587 210.335,261.92 209,262.5C 207.878,260.376 206.378,258.543 204.5,257C 205.712,255.893 205.379,255.393 203.5,255.5C 202.833,255.5 202.167,255.5 201.5,255.5C 201.157,253.517 201.824,252.183 203.5,251.5 Z"/></g>
<g><path style="opacity:0.004" fill="#feff00" d="M 497.5,260.5 C 498.833,261.167 498.833,261.167 497.5,260.5 Z"/></g>
</svg>
